  <svg xmlns="http://www.w3.org/2000/svg" width="80" height="80" viewBox="0 0 1536 1024" preserveAspectRatio="xMidYMid meet">
          
          <!-- nền trắng -->
          <rect width="100%" height="100%" fill="#FFFFFF"/>

          <g transform="translate(0,1024) scale(0.1,-0.1)" stroke="none">
            
            <!-- G -->
            <path fill="#FF1A1A" d="M4575 8249 c-38 -5 -128 -16 -200 -25 -205 -25 -413 -73 -616 -142 -772 -264 -1384 -831 -1708 -1582 -167 -388 -260 -878 -261 -1375 0 -540 90 -988 289 -1442 314 -713 985 -1292 1786 -1541 146 -46 232 -69 290 -77 22 -3 54 -10 70 -15 41 -12 168 -32 325 -51 140 -17 659 -23 790 -10 255 26 299 32 385 47 113 20 354 77 460 109 503 150 945 424 1250 775 267 307 472 736 551 1150 3 14 11 57 19 95 13 66 19 114 45 357 5 54 10 344 10 657 l0 561 -1670 0 -1670 0 0 -625 0 -625 860 0 c527 0 860 -4 860 -9 0 -5 -7 -43 -15 -83 -71 -339 -274 -644 -551 -824 -182 -119 -416 -207 -646 -244 -186 -29 -438 -27 -603 5 -104 20 -138 29 -216 55 -340 114 -639 337 -840 627 -322 466 -424 1133 -263 1708 85 302 236 565 449 780 257 259 552 418 900 482 80 15 230 17 1325 22 l1235 6 45 66 c267 391 704 1027 778 1132 l33 47 -1713 -1 c-942 -1 -1744 -5 -1783 -10z"/>

            <!-- B -->
            <path fill="#004FC2" d="M8663 8228 c-12 -18 -73 -109 -137 -202 l-116 -169 0 -989 0 -988 635 0 635 0 0 560 0 560 810 0 c757 0 818 -1 948 -20 356 -51 548 -190 628 -455 14 -46 18 -91 18 -190 -1 -116 -4 -138 -28 -199 -35 -92 -56 -123 -121 -187 -114 -112 -270 -172 -510 -199 -53 -6 -434 -10 -921 -10 -457 0 -845 -3 -861 -6 -25 -5 -49 -35 -155 -192 -70 -103 -177 -261 -239 -352 -259 -383 -347 -512 -424 -625 -45 -66 -157 -231 -248 -367 l-167 -247 0 -971 0 -970 1598 0 c1423 0 1776 5 1913 24 19 3 72 10 119 16 355 46 753 184 1020 353 201 128 419 332 527 492 194 289 273 558 273 927 0 246 -31 423 -108 613 -149 369 -419 634 -809 791 -40 16 -73 32 -73 35 0 3 22 18 50 33 121 66 270 197 360 316 70 93 168 312 186 415 3 17 9 46 14 65 20 76 32 269 26 410 -5 126 -10 171 -30 276 -33 169 -117 380 -205 514 -108 166 -192 262 -331 379 -358 301 -812 492 -1355 568 -107 15 -273 17 -1510 20 l-1390 3 -22 -32z m3099 -3767 c196 -34 313 -79 417 -162 166 -133 225 -397 139 -627 -22 -60 -100 -163 -156 -206 -50 -38 -162 -92 -242 -116 -165 -49 -198 -50 -1195 -50 l-935 0 0 590 0 590 929 0 c873 0 937 -1 1043 -19z"/>

          </g>
        </svg>